<svg
  xmlns="http://www.w3.org/2000/svg"
  height="150"
  width="450">

  <style>
    :root {
      --light-grey: #a0a0a0;
    }

    #grid {
      display: none;
    }

    #grid > g {
      stroke-opacity: 0.1;
    }

    #types > line {
      stroke-width: 2;
      stroke-dasharray: 10 4;
      stroke: var(--light-grey);
    }

    #types > text {
      font-family: monospace;
      font-weight: bold;
      dominant-baseline: middle;
      fill: var(--light-grey);
    }

    #tree text {
      font-style: italic;
      dominant-baseline: middle;
      fill: black;
    }

    #tree circle, #tree path, #tree line {
      stroke-width: 2;
      stroke: black;
      fill: white;
    }

    #tree .value {
      text-anchor: middle;
    }

  </style>

  <!-- background grid -->
  <g id="grid">
    <g stroke="blue">
      <line x1="0" x2="0" y1="0" y2="150"/>
      <line x1="50" x2="50" y1="0" y2="150"/>
      <line x1="100" x2="100" y1="0" y2="150"/>
      <line x1="150" x2="150" y1="0" y2="150"/>
      <line x1="200" x2="200" y1="0" y2="150"/>
      <line x1="250" x2="250" y1="0" y2="150"/>
      <line x1="300" x2="300" y1="0" y2="150"/>
      <line x1="350" x2="350" y1="0" y2="150"/>
      <line x1="400" x2="400" y1="0" y2="150"/>
      <line x1="450" x2="450" y1="0" y2="150"/>
    </g>
    <g stroke="red">
      <line y1="0"  y2="0"  x1="0" x2="450"/>
      <line y1="50"  y2="50"  x1="0" x2="450"/>
      <line y1="100" y2="100" x1="0" x2="450"/>
      <line y1="150" y2="150" x1="0" x2="450"/>
    </g>
  </g>

  <defs>
    <!-- triangle for arrow head -->
    <marker
      id="arrow"
      viewBox="0 0 10 10"
      refX="5"
      refY="5"
      markerWidth="4"
      markerHeight="4"
      orient="auto-start-reverse">
      <path d="M 0 0 L 10 5 L 0 10 z" />
    </marker>
    <!-- ball for arrow tail -->
    <marker
      id="ball"
      viewBox="0 0 10 10"
      refX="5"
      refY="5"
      markerWidth="4"
      markerHeight="4"
      orient="auto-start-reverse">
      <circle cx="5" cy="5" r="5"/>
    </marker>
  </defs>

  <g id="types">
    <text x="300" y="50">:: a</text>
    <line y1="85" y2="85" x1="0" x2="450"/>
    <text x="300" y="115">:: BalancedTree a</text>
  </g>

  <g id="tree">
    <circle cx="100" cy="50" r="16"/>
    <text x="100" y="50" class="value">a₀</text>

    <path d="M 50 100 l 50 0 a 15 15 180 1 1 0 30 l -50 0 a 15 15 180 1 1 0 -30"/>"
    <text x="42" y="115">Canopy</text>

    <line x1="100" y1="115" x2="100" y2="71" marker-start="url(#ball)" marker-end="url(#arrow)" />
  </g>
</svg>
